<?xml version="1.0" encoding="UTF-8" standalone="no"?>
<svg width="52px" height="52px" viewBox="0 0 52 52" version="1.1" xmlns="http://www.w3.org/2000/svg" xmlns:xlink="http://www.w3.org/1999/xlink">
    <!-- Generator: Sketch 3.6.1 (26313) - http://www.bohemiancoding.com/sketch -->
    <title>cross</title>
    <desc>Created with Sketch.</desc>
    <defs></defs>
    <g id="Page-1" stroke="none" stroke-width="1" fill="none" fill-rule="evenodd">
        <path d="M50.68175,44.31775 C52.43875,46.07475 52.43875,48.92475 50.68175,50.68175 C49.80275,51.56075 48.65175,51.99975 47.49975,51.99975 C46.34775,51.99975 45.19675,51.56075 44.31775,50.68175 L25.99975,32.36375 L7.68175,50.68175 C6.80275,51.56075 5.65175,51.99975 4.49975,51.99975 C3.34775,51.99975 2.19675,51.56075 1.31775,50.68175 C-0.43925,48.92475 -0.43925,46.07475 1.31775,44.31775 L19.63575,25.99975 L1.31775,7.68175 C-0.43925,5.92475 -0.43925,3.07475 1.31775,1.31775 C3.07575,-0.43925 5.92375,-0.43925 7.68175,1.31775 L25.99975,19.63575 L44.31775,1.31775 C46.07575,-0.43925 48.92375,-0.43925 50.68175,1.31775 C52.43875,3.07475 52.43875,5.92475 50.68175,7.68175 L32.36375,25.99975 L50.68175,44.31775 Z" id="cross" fill="#000000"></path>
    </g>
</svg>