<?xml version="1.0" encoding="UTF-8" standalone="no"?>
<svg width="14px" height="14px" viewBox="0 0 14 14" version="1.1" xmlns="http://www.w3.org/2000/svg" xmlns:xlink="http://www.w3.org/1999/xlink">
    <!-- Generator: Sketch 3.6.1 (26313) - http://www.bohemiancoding.com/sketch -->
    <title>Facebook</title>
    <desc>Created with Sketch.</desc>
    <defs></defs>
    <g id="Page-1" stroke="none" stroke-width="1" fill="none" fill-rule="evenodd">
        <g id="Facebook" fill="#222222">
            <path d="M12.956,0 C13.164,0 13.343,0.074 13.492,0.223 C13.64,0.372 13.715,0.551 13.715,0.759 L13.715,12.955 C13.715,13.163 13.64,13.342 13.492,13.491 C13.343,13.64 13.164,13.714 12.956,13.714 L9.465,13.714 L9.465,8.401 L11.242,8.401 L11.509,6.33 L9.465,6.33 L9.465,5.009 C9.465,4.676 9.535,4.426 9.675,4.259 C9.814,4.092 10.087,4.009 10.492,4.009 L11.581,4 L11.581,2.151 C11.206,2.098 10.676,2.071 9.992,2.071 C9.182,2.071 8.535,2.31 8.05,2.785 C7.564,3.262 7.322,3.935 7.322,4.804 L7.322,6.33 L5.536,6.33 L5.536,8.401 L7.322,8.401 L7.322,13.714 L0.759,13.714 C0.551,13.714 0.373,13.64 0.224,13.491 C0.075,13.342 0,13.163 0,12.955 L0,0.759 C0,0.551 0.075,0.372 0.224,0.223 C0.373,0.074 0.551,0 0.759,0 L12.956,0 Z" id="Fill-1"></path>
        </g>
    </g>
</svg>