<?xml version="1.0" encoding="UTF-8" standalone="no"?>
<svg width="359px" height="310px" viewBox="0 0 359 310" version="1.1" xmlns="http://www.w3.org/2000/svg" xmlns:xlink="http://www.w3.org/1999/xlink">
    <!-- Generator: Sketch 3.6.1 (26313) - http://www.bohemiancoding.com/sketch -->
    <title>ProudPunchBlockLogo</title>
    <desc>Created with Sketch.</desc>
    <defs></defs>
    <g id="Page-1" stroke="none" stroke-width="1" fill="none" fill-rule="evenodd">
        <g id="ProudPunchBlockLogo">
            <path d="M358.259,55.223 L358.259,55.223 L179.13,0.262 L0,55.223 L0,255.039 L179.13,310 L358.259,255.039 L358.259,55.223" id="Fill-1" fill="#FBF8EA"></path>
            <path d="M68.25,101.061 C72.32,101.061 74.893,98.846 74.893,95.555 L74.893,95.435 C74.893,91.844 72.32,89.989 68.191,89.989 L62.685,89.989 L62.685,101.061 L68.25,101.061 L68.25,101.061 Z M51.075,80.234 L69.088,80.234 C79.621,80.234 86.443,85.68 86.443,94.896 L86.443,95.016 C86.443,104.951 78.843,110.157 68.49,110.157 L62.685,110.157 L62.685,122.126 L51.075,122.126 L51.075,80.234 L51.075,80.234 Z" id="Fill-2" fill="#000000"></path>
            <path d="M119.168,100.342 C123.058,100.342 125.392,98.427 125.392,95.376 L125.392,95.255 C125.392,91.904 122.938,90.229 119.108,90.229 L111.448,90.229 L111.448,100.342 L119.168,100.342 L119.168,100.342 Z M99.838,80.234 L119.647,80.234 C126.05,80.234 130.479,81.91 133.291,84.723 C135.745,87.177 137.002,90.348 137.002,94.477 L137.002,94.597 C137.002,101.061 133.591,105.31 128.384,107.524 L138.378,122.126 L125.033,122.126 L116.594,109.439 L111.448,109.439 L111.448,122.126 L99.838,122.126 L99.838,80.234 L99.838,80.234 Z" id="Fill-3" fill="#000000"></path>
            <path d="M182.689,101.3 L182.689,101.18 C182.689,95.076 178.38,89.87 171.976,89.87 C165.573,89.87 161.324,95.016 161.324,101.061 L161.324,101.18 C161.324,107.225 165.693,112.491 172.096,112.491 C178.44,112.491 182.689,107.344 182.689,101.3 L182.689,101.3 Z M149.475,101.3 L149.475,101.18 C149.475,89.151 159.17,79.396 172.096,79.396 C185.023,79.396 194.598,89.032 194.598,101.061 L194.598,101.18 C194.598,113.209 184.903,122.964 171.976,122.964 C159.05,122.964 149.475,113.329 149.475,101.3 L149.475,101.3 Z" id="Fill-4" fill="#000000"></path>
            <path d="M208.776,103.753 L208.776,80.234 L220.506,80.234 L220.506,103.514 C220.506,109.559 223.558,112.431 228.226,112.431 C232.954,112.431 236.006,109.678 236.006,103.813 L236.006,80.234 L247.735,80.234 L247.735,103.454 C247.735,116.919 240.015,122.904 228.106,122.904 C216.257,122.904 208.776,116.859 208.776,103.753" id="Fill-5" fill="#000000"></path>
            <path d="M275.624,90.468 L275.624,111.832 L280.351,111.832 C287.353,111.832 291.962,108.002 291.962,101.24 L291.962,101.121 C291.962,94.418 287.353,90.468 280.351,90.468 L275.624,90.468 L275.624,90.468 Z M264.013,80.234 L280.232,80.234 C295.133,80.234 303.81,88.852 303.81,100.941 L303.81,101.061 C303.81,113.149 295.013,122.126 279.993,122.126 L264.013,122.126 L264.013,80.234 L264.013,80.234 Z" id="Fill-6" fill="#000000"></path>
            <path d="M69.292,208.771 C73.362,208.771 75.935,206.558 75.935,203.266 L75.935,203.146 C75.935,199.556 73.362,197.7 69.233,197.7 L63.727,197.7 L63.727,208.771 L69.292,208.771 L69.292,208.771 Z M52.117,187.945 L70.13,187.945 C80.663,187.945 87.485,193.392 87.485,202.607 L87.485,202.728 C87.485,212.661 79.885,217.868 69.532,217.868 L63.727,217.868 L63.727,229.837 L52.117,229.837 L52.117,187.945 L52.117,187.945 Z" id="Fill-7" fill="#000000"></path>
            <path d="M100.311,211.465 L100.311,187.945 L112.041,187.945 L112.041,211.226 C112.041,217.27 115.093,220.142 119.761,220.142 C124.489,220.142 127.541,217.39 127.541,211.524 L127.541,187.945 L139.271,187.945 L139.271,211.165 C139.271,224.631 131.55,230.615 119.641,230.615 C107.792,230.615 100.311,224.57 100.311,211.465" id="Fill-8" fill="#000000"></path>
            <path d="M155.55,187.945 L166.382,187.945 L183.617,210.088 L183.617,187.945 L195.107,187.945 L195.107,229.837 L184.993,229.837 L167.04,206.856 L167.04,229.837 L155.55,229.837 L155.55,187.945" id="Fill-9" fill="#000000"></path>
            <path d="M209.949,209.011 L209.949,208.892 C209.949,196.683 219.285,187.107 231.971,187.107 C240.53,187.107 246.036,190.698 249.746,195.785 L241.008,202.548 C238.615,199.615 235.862,197.641 231.852,197.641 C225.987,197.641 221.858,202.667 221.858,208.771 L221.858,208.892 C221.858,215.175 225.987,220.082 231.852,220.082 C236.22,220.082 238.795,218.048 241.307,214.995 L250.045,221.22 C246.095,226.665 240.769,230.675 231.553,230.675 C219.584,230.675 209.949,221.519 209.949,209.011" id="Fill-10" fill="#000000"></path>
            <path d="M263.529,187.945 L275.139,187.945 L275.139,203.625 L290.041,203.625 L290.041,187.945 L301.651,187.945 L301.651,229.837 L290.041,229.837 L290.041,213.918 L275.139,213.918 L275.139,229.837 L263.529,229.837 L263.529,187.945" id="Fill-11" fill="#000000"></path>
            <path d="M179.687,153.549 L184.37,159.432 C185.172,157.832 185.629,156.062 185.743,154.063 L194.423,154.063 C194.254,158.918 192.597,163.087 189.969,166.458 L196.194,174.339 L184.142,174.339 L182.713,172.569 C179.974,174.054 176.716,174.91 173.175,174.91 C164.553,174.91 158.211,170.627 158.211,163.487 C158.211,157.718 161.41,154.805 166.836,152.178 C165.238,149.55 164.436,146.752 164.436,144.525 C164.436,138.756 169.359,135.042 175.985,135.042 L176.09,141.953 C174.718,141.953 173.804,142.469 173.804,144.182 C173.804,145.609 174.261,146.638 175.461,148.18 M171.176,157.947 C169.464,159.261 168.835,160.63 168.835,162.46 C168.835,164.972 170.436,166.629 173.919,166.629 C175.119,166.629 176.319,166.401 177.519,165.942 L171.176,157.947" id="Fill-12" fill="#000000"></path>
            <path d="M325.085,188.718 L327.921,188.718 L330.253,192.468 L332.552,188.718 L335.388,188.718 L335.388,198.423 L332.742,198.423 L332.742,192.72 L330.284,196.595 L330.158,196.595 L327.7,192.72 L327.7,198.423 L325.085,198.423 L325.085,188.718 L325.085,188.718 Z M317.932,191.081 L315.065,191.081 L315.065,188.718 L323.541,188.718 L323.541,191.081 L320.642,191.081 L320.642,198.423 L317.932,198.423 L317.932,191.081 L317.932,191.081 Z" id="Fill-13" fill="#000000"></path>
            <path d="M48.816,158.021 L134.703,158.021 L134.703,151.83 L48.816,151.83 L48.816,158.021 Z" id="Fill-14" fill="#000000"></path>
            <path d="M214.472,158.021 L304.677,158.021 L304.677,151.83 L214.472,151.83 L214.472,158.021 Z" id="Fill-15" fill="#000000"></path>
        </g>
    </g>
</svg>