<?xml version="1.0" encoding="UTF-8" standalone="no"?>
<svg width="18px" height="18px" viewBox="0 0 18 18" version="1.1" xmlns="http://www.w3.org/2000/svg" xmlns:xlink="http://www.w3.org/1999/xlink">
    <!-- Generator: Sketch 3.6.1 (26313) - http://www.bohemiancoding.com/sketch -->
    <title>Instagram</title>
    <desc>Created with Sketch.</desc>
    <defs></defs>
    <g id="Page-1" stroke="none" stroke-width="1" fill="none" fill-rule="evenodd">
        <g id="Instagram" fill="#0A0A08">
            <path d="M9,1.62396429 C11.4023571,1.62396429 11.6868929,1.63310714 12.6356071,1.67639286 C13.5128214,1.71642857 13.9892143,1.863 14.3062857,1.98617857 C14.7262143,2.14939286 15.0259643,2.34439286 15.3407857,2.65921429 C15.6556071,2.97403571 15.8506071,3.27378571 16.0137857,3.69371429 C16.137,4.01078571 16.2835714,4.48717857 16.3236071,5.36435714 C16.3668929,6.31310714 16.3760357,6.59764286 16.3760357,9 C16.3760357,11.4023571 16.3668929,11.6868929 16.3236071,12.6356071 C16.2835714,13.5128214 16.137,13.9892143 16.0137857,14.3062857 C15.8506071,14.7262143 15.6556071,15.0259643 15.3407857,15.3407857 C15.0259643,15.6556071 14.7262143,15.8506071 14.3062857,16.0137857 C13.9892143,16.137 13.5128214,16.2835714 12.6356071,16.3236071 C11.6870357,16.3668929 11.4025,16.3760357 9,16.3760357 C6.5975,16.3760357 6.31296429,16.3668929 5.36439286,16.3236071 C4.48717857,16.2835714 4.01078571,16.137 3.69375,16.0137857 C3.27378571,15.8506071 2.97403571,15.6556071 2.65921429,15.3407857 C2.34439286,15.0259643 2.14939286,14.7262143 1.98621429,14.3062857 C1.863,13.9892143 1.71642857,13.5128214 1.67639286,12.6356429 C1.63310714,11.6868929 1.62396429,11.4023571 1.62396429,9 C1.62396429,6.59764286 1.63310714,6.31310714 1.67639286,5.36439286 C1.71642857,4.48717857 1.863,4.01078571 1.98621429,3.69371429 C2.14939286,3.27378571 2.34439286,2.97403571 2.65921429,2.65921429 C2.97403571,2.34439286 3.27378571,2.14939286 3.69375,1.98617857 C4.01078571,1.863 4.48717857,1.71642857 5.36435714,1.67639286 C6.31310714,1.63310714 6.59764286,1.62396429 9,1.62396429 M9,0.00282142857 C6.5565,0.00282142857 6.25014286,0.0131785714 5.2905,0.0569642857 C4.33282143,0.100678571 3.67882143,0.25275 3.1065,0.475178571 C2.51485714,0.705107143 2.01310714,1.01275 1.51292857,1.51292857 C1.01275,2.01310714 0.705107143,2.51485714 0.475178571,3.1065 C0.25275,3.67882143 0.100678571,4.33282143 0.0569642857,5.2905 C0.0131785714,6.25010714 0.00285714286,6.5565 0.00285714286,9 C0.00285714286,11.4435 0.0131785714,11.7498929 0.0569642857,12.7095 C0.100678571,13.6671786 0.25275,14.3211786 0.475178571,14.8935 C0.705107143,15.4851071 1.01275,15.9868929 1.51292857,16.4870714 C2.01310714,16.98725 2.51485714,17.2948929 3.1065,17.5248214 C3.67882143,17.74725 4.33282143,17.8993214 5.2905,17.9430357 C6.25014286,17.9868214 6.5565,17.9971429 9,17.9971429 C11.4435,17.9971429 11.7498929,17.9868214 12.7095,17.9430357 C13.6671786,17.8993214 14.3211786,17.74725 14.8935,17.5248214 C15.4851429,17.2948929 15.9868929,16.98725 16.4870714,16.4870714 C16.98725,15.9868929 17.2948929,15.4851429 17.5248214,14.8935 C17.74725,14.3211786 17.8993214,13.6671786 17.9430357,12.7095 C17.9868214,11.7498929 17.9971786,11.4435 17.9971786,9 C17.9971786,6.5565 17.9868214,6.25010714 17.9430357,5.2905 C17.8993214,4.33282143 17.74725,3.67882143 17.5248214,3.1065 C17.2948929,2.51485714 16.98725,2.01310714 16.4870714,1.51292857 C15.9868929,1.01275 15.4851429,0.705107143 14.8935,0.475178571 C14.3211786,0.25275 13.6671786,0.100678571 12.7095,0.0569642857 C11.7498929,0.0131785714 11.4435,0.00282142857 9,0.00282142857" id="Fill-1"></path>
            <path d="M9,4.37982143 C6.44835714,4.37982143 4.37982143,6.44835714 4.37982143,9 C4.37982143,11.5516429 6.44835714,13.6201786 9,13.6201786 C11.5516429,13.6201786 13.6201786,11.5516429 13.6201786,9 C13.6201786,6.44835714 11.5516429,4.37982143 9,4.37982143 L9,4.37982143 Z M9,11.9990714 C7.34367857,11.9990714 6.00092857,10.6563214 6.00092857,9 C6.00092857,7.34367857 7.34367857,6.00092857 9,6.00092857 C10.6563214,6.00092857 11.9990714,7.34367857 11.9990714,9 C11.9990714,10.6563214 10.6563214,11.9990714 9,11.9990714 L9,11.9990714 Z" id="Fill-2"></path>
            <path d="M14.8823571,4.19728571 C14.8823571,4.79357143 14.399,5.27696429 13.8027143,5.27696429 C13.2064286,5.27696429 12.7230357,4.79357143 12.7230357,4.19728571 C12.7230357,3.601 13.2064286,3.11764286 13.8027143,3.11764286 C14.399,3.11764286 14.8823571,3.601 14.8823571,4.19728571" id="Fill-3"></path>
        </g>
    </g>
</svg>