<?xml version="1.0" encoding="UTF-8" standalone="no"?>
<svg width="287px" height="152px" viewBox="0 0 287 152" version="1.1" xmlns="http://www.w3.org/2000/svg" xmlns:xlink="http://www.w3.org/1999/xlink">
    <!-- Generator: Sketch 3.6.1 (26313) - http://www.bohemiancoding.com/sketch -->
    <title>ProudPunchLogo</title>
    <desc>Created with Sketch.</desc>
    <defs></defs>
    <g id="Page-1" stroke="none" stroke-width="1" fill="none" fill-rule="evenodd">
        <g id="ProudPunchLogo" fill="#000000">
            <path d="M19.434,22.386 C23.504,22.386 26.077,20.172 26.077,16.88 L26.077,16.761 C26.077,13.17 23.504,11.315 19.374,11.315 L13.868,11.315 L13.868,22.386 L19.434,22.386 L19.434,22.386 Z M2.258,1.56 L20.272,1.56 C30.804,1.56 37.627,7.006 37.627,16.222 L37.627,16.342 C37.627,26.276 30.027,31.483 19.673,31.483 L13.868,31.483 L13.868,43.452 L2.258,43.452 L2.258,1.56 L2.258,1.56 Z" id="Fill-1"></path>
            <path d="M70.352,21.668 C74.241,21.668 76.575,19.753 76.575,16.701 L76.575,16.581 C76.575,13.23 74.122,11.554 70.292,11.554 L62.632,11.554 L62.632,21.668 L70.352,21.668 L70.352,21.668 Z M51.022,1.56 L70.83,1.56 C77.234,1.56 81.662,3.236 84.475,6.048 C86.928,8.502 88.185,11.674 88.185,15.803 L88.185,15.923 C88.185,22.386 84.774,26.635 79.568,28.849 L89.562,43.452 L76.216,43.452 L67.778,30.765 L62.632,30.765 L62.632,43.452 L51.022,43.452 L51.022,1.56 L51.022,1.56 Z" id="Fill-2"></path>
            <path d="M133.873,22.625 L133.873,22.506 C133.873,16.402 129.564,11.195 123.16,11.195 C116.757,11.195 112.508,16.342 112.508,22.386 L112.508,22.506 C112.508,28.55 116.876,33.816 123.28,33.816 C129.623,33.816 133.873,28.67 133.873,22.625 L133.873,22.625 Z M100.658,22.625 L100.658,22.506 C100.658,10.477 110.353,0.722 123.28,0.722 C136.207,0.722 145.782,10.357 145.782,22.386 L145.782,22.506 C145.782,34.535 136.087,44.289 123.16,44.289 C110.234,44.289 100.658,34.654 100.658,22.625 L100.658,22.625 Z" id="Fill-3"></path>
            <path d="M159.96,25.079 L159.96,1.56 L171.689,1.56 L171.689,24.84 C171.689,30.884 174.742,33.757 179.41,33.757 C184.137,33.757 187.189,31.004 187.189,25.139 L187.189,1.56 L198.919,1.56 L198.919,24.78 C198.919,38.245 191.199,44.229 179.29,44.229 C167.44,44.229 159.96,38.185 159.96,25.079" id="Fill-4"></path>
            <path d="M226.807,11.793 L226.807,33.158 L231.535,33.158 C238.537,33.158 243.145,29.328 243.145,22.566 L243.145,22.446 C243.145,15.743 238.537,11.793 231.535,11.793 L226.807,11.793 L226.807,11.793 Z M215.197,1.56 L231.416,1.56 C246.317,1.56 254.994,10.178 254.994,22.266 L254.994,22.386 C254.994,34.475 246.197,43.452 231.176,43.452 L215.197,43.452 L215.197,1.56 L215.197,1.56 Z" id="Fill-5"></path>
            <path d="M20.476,130.097 C24.546,130.097 27.119,127.883 27.119,124.591 L27.119,124.472 C27.119,120.881 24.546,119.026 20.416,119.026 L14.91,119.026 L14.91,130.097 L20.476,130.097 L20.476,130.097 Z M3.3,109.271 L21.314,109.271 C31.846,109.271 38.669,114.717 38.669,123.933 L38.669,124.053 C38.669,133.987 31.069,139.194 20.715,139.194 L14.91,139.194 L14.91,151.162 L3.3,151.162 L3.3,109.271 L3.3,109.271 Z" id="Fill-6"></path>
            <path d="M51.495,132.79 L51.495,109.271 L63.225,109.271 L63.225,132.551 C63.225,138.595 66.277,141.467 70.945,141.467 C75.673,141.467 78.724,138.715 78.724,132.85 L78.724,109.271 L90.454,109.271 L90.454,132.491 C90.454,145.956 82.734,151.941 70.825,151.941 C58.976,151.941 51.495,145.896 51.495,132.79" id="Fill-7"></path>
            <path d="M106.733,109.271 L117.565,109.271 L134.8,131.413 L134.8,109.271 L146.291,109.271 L146.291,151.162 L136.176,151.162 L118.223,128.182 L118.223,151.162 L106.733,151.162 L106.733,109.271" id="Fill-8"></path>
            <path d="M161.133,130.336 L161.133,130.217 C161.133,118.008 170.468,108.433 183.155,108.433 C191.714,108.433 197.219,112.024 200.929,117.111 L192.192,123.873 C189.799,120.941 187.046,118.966 183.036,118.966 C177.171,118.966 173.042,123.993 173.042,130.097 L173.042,130.217 C173.042,136.5 177.171,141.408 183.036,141.408 C187.404,141.408 189.978,139.373 192.491,136.321 L201.228,142.545 C197.279,147.991 191.953,152 182.737,152 C170.767,152 161.133,142.844 161.133,130.336" id="Fill-9"></path>
            <path d="M214.713,109.271 L226.323,109.271 L226.323,124.951 L241.224,124.951 L241.224,109.271 L252.835,109.271 L252.835,151.162 L241.224,151.162 L241.224,135.243 L226.323,135.243 L226.323,151.162 L214.713,151.162 L214.713,109.271" id="Fill-10"></path>
            <path d="M130.871,74.875 L135.553,80.758 C136.356,79.158 136.812,77.387 136.926,75.388 L145.607,75.388 C145.437,80.244 143.781,84.413 141.152,87.783 L147.378,95.665 L135.325,95.665 L133.897,93.894 C131.158,95.38 127.9,96.236 124.359,96.236 C115.737,96.236 109.394,91.952 109.394,84.812 C109.394,79.044 112.593,76.13 118.019,73.504 C116.422,70.875 115.619,68.077 115.619,65.85 C115.619,60.082 120.543,56.367 127.169,56.367 L127.274,63.279 C125.901,63.279 124.988,63.794 124.988,65.508 C124.988,66.934 125.445,67.963 126.645,69.506 M122.36,79.272 C120.648,80.586 120.018,81.956 120.018,83.785 C120.018,86.298 121.62,87.954 125.102,87.954 C126.302,87.954 127.502,87.726 128.702,87.268 L122.36,79.272" id="Fill-11"></path>
            <path d="M276.268,110.043 L279.104,110.043 L281.436,113.793 L283.736,110.043 L286.572,110.043 L286.572,119.748 L283.925,119.748 L283.925,114.045 L281.467,117.92 L281.341,117.92 L278.883,114.045 L278.883,119.748 L276.268,119.748 L276.268,110.043 L276.268,110.043 Z M269.116,112.407 L266.249,112.407 L266.249,110.043 L274.724,110.043 L274.724,112.407 L271.826,112.407 L271.826,119.748 L269.116,119.748 L269.116,112.407 L269.116,112.407 Z" id="Fill-12"></path>
            <path d="M0,79.346 L85.887,79.346 L85.887,73.155 L0,73.155 L0,79.346 Z" id="Fill-13"></path>
            <path d="M165.656,79.346 L255.861,79.346 L255.861,73.155 L165.656,73.155 L165.656,79.346 Z" id="Fill-14"></path>
        </g>
    </g>
</svg>